<svg width="115" height="23" viewBox="0 0 115 23" fill="none" xmlns="http://www.w3.org/2000/svg">
<path d="M0.397017 22V0.181818H3.68892V19.1662H13.5753V22H0.397017ZM31.3612 0.181818H34.6637V14.532C34.6637 16.0589 34.305 17.4119 33.5877 18.5909C32.8704 19.7628 31.8619 20.6861 30.5621 21.3608C29.2624 22.0284 27.739 22.3622 25.9918 22.3622C24.2518 22.3622 22.7319 22.0284 21.4322 21.3608C20.1325 20.6861 19.1239 19.7628 18.4066 18.5909C17.6893 17.4119 17.3306 16.0589 17.3306 14.532V0.181818H20.6225V14.2656C20.6225 15.2528 20.8391 16.13 21.2724 16.897C21.7127 17.6641 22.3342 18.2678 23.1367 18.7081C23.9393 19.1413 24.891 19.358 25.9918 19.358C27.0998 19.358 28.055 19.1413 28.8576 18.7081C29.6673 18.2678 30.2852 17.6641 30.7113 16.897C31.1445 16.13 31.3612 15.2528 31.3612 14.2656V0.181818ZM39.4498 0.181818H43.4448L50.3908 17.142H50.6465L57.5925 0.181818H61.5875V22H58.4554V6.21165H58.253L51.8184 21.968H49.2189L42.7843 6.20099H42.5819V22H39.4498V0.181818ZM69.6655 0.181818V22H66.3736V0.181818H69.6655ZM92.0696 0.181818V22H89.044L77.9538 5.99858H77.7514V22H74.4595V0.181818H77.5064L88.6072 16.2045H88.8097V0.181818H92.0696ZM98.7147 22H95.2203L103.072 0.181818H106.875L114.727 22H111.232L105.064 4.14489H104.894L98.7147 22ZM99.3006 13.456H110.636V16.2259H99.3006V13.456Z" fill="black"/>
</svg>
